<svg xmlns="http://www.w3.org/2000/svg" viewBox="0 0 512 512" role="img" aria-label="Math Mission">
  <rect width="512" height="512" rx="112" fill="#7e14ff"/>
  <rect x="48" y="48" width="416" height="416" rx="88" fill="#ffffff" opacity="0.08"/>
  <path d="M290 64c13 0 20 15 12 25l-75 94h111c12 0 19 14 12 24L165 448c-8 10-24 3-22-10l15-104H86c-12 0-19-14-12-24L221 89c8-10 24-3 22 10l-13 92h60" fill="#ffffff" opacity="0.18"/>
  <path d="M296 72c11 0 17 12 11 21l-70 88h103c10 0 16 11 10 20L176 436c-6 9-20 2-18-9l14-98H90c-10 0-16-11-10-20L224 95c6-9 20-2 18 9l-12 82h66z" fill="#ede6ff"/>
  <path d="M310 160c10 0 16 11 10 20L264 262h76c10 0 16 11 10 20L226 408c-6 9-20 2-18-9l8-55h-54c-10 0-16-11-10-20l46-72h-44c-10 0-16-11-10-20l68-86c6-9 20-2 18 9l4 24h66z" fill="#863bff"/>
  <path d="M308 156c8 0 13 9 8 16l-44 56h57c8 0 13 9 8 16l-83 120c-5 7-16 2-15-7l6-46h-48c-8 0-13-9-8-16l43-67h-39c-8 0-13-9-8-16l59-74c5-7 16-2 15 7l3 11h46z" fill="#ffffff"/>
</svg>
